# xmcd
#
# Track frame offsets: 
#        150
#        11658
#        27741
#        50707
#        75692
#        94245
#        122095
#
# Disc length: 1653 seconds
#
# Revision: 0
# Processed by: cddbd v1.5.2PL0 Copyright (c) Steve Scherf et al.
# Submitted via: ExactAudioCopyFreeDBPlugin 1.0
#
DISCID=5a067307
DTITLE=Earle and Coffin - A Day In July
DYEAR=2017
DGENRE=blues
TTITLE0=It's Raining
TTITLE1=Who Were You With Last Night
TTITLE2=You've Done Nothing
TTITLE3=Dead Eye Woman
TTITLE4=Hopeless Situation
TTITLE5=Memories
TTITLE6=Unknown Trackname
EXTD=
EXTT0=
EXTT1=
EXTT2=
EXTT3=
EXTT4=
EXTT5=
EXTT6=
PLAYORDER=
